<svg width="64" height="64" viewBox="0 0 64 64" fill="none" xmlns="http://www.w3.org/2000/svg">
<rect width="64" height="64" fill="#FEFEFE"/>
<path d="M38.9384 43.2308V20.1009H48.5138C50.233 20.1009 51.6719 20.3456 52.8305 20.835C53.9966 21.3244 54.8712 22.0096 55.4542 22.8905C56.0448 23.7714 56.34 24.7916 56.34 25.9511C56.34 26.832 56.1569 27.6189 55.7906 28.3116C55.4244 28.9967 54.9198 29.5652 54.2769 30.0169C53.6341 30.4687 52.8903 30.7849 52.0457 30.9656V31.1915C52.9726 31.2367 53.8285 31.4889 54.6133 31.9482C55.4057 32.4075 56.041 33.0475 56.5194 33.8681C56.9978 34.6813 57.237 35.6451 57.237 36.7594C57.237 38.0017 56.9231 39.1123 56.2952 40.0911C55.6673 41.0624 54.7591 41.8304 53.5706 42.395C52.3821 42.9522 50.9394 43.2308 49.2426 43.2308H38.9384ZM44.4885 38.7245H47.9195C49.123 38.7245 50.0088 38.4949 50.5769 38.0356C51.1524 37.5763 51.4402 36.9363 51.4402 36.1156C51.4402 35.5208 51.3019 35.0088 51.0254 34.5797C50.7488 34.143 50.3563 33.8079 49.848 33.5745C49.3398 33.3336 48.7305 33.2131 48.0204 33.2131H44.4885V38.7245ZM44.4885 29.6103H47.5607C48.1662 29.6103 48.7044 29.5087 49.1753 29.3054C49.6462 29.1021 50.0125 28.8085 50.2741 28.4245C50.5432 28.0405 50.6778 27.5774 50.6778 27.0353C50.6778 26.2598 50.4049 25.65 49.8593 25.2057C49.3136 24.7615 48.5773 24.5394 47.6504 24.5394H44.4885V29.6103Z" fill="#422D17"/>
<path d="M37.8455 19H48.5137L48.5138 20.1009H38.9384V43.2308H49.2426L49.4009 43.23C51.0293 43.2131 52.4192 42.9348 53.5706 42.395C54.7591 41.8304 55.6673 41.0624 56.2952 40.0911C56.9034 39.1429 57.2171 38.071 57.2361 36.8754L57.237 36.7594C57.237 35.6451 56.9978 34.6813 56.5194 33.8681C56.041 33.0475 55.4057 32.4075 54.6133 31.9482C53.8285 31.4889 52.9726 31.2367 52.0457 31.1915V30.9656C52.8639 30.7906 53.5875 30.4883 54.2164 30.0589L54.2769 30.0169C54.9198 29.5652 55.4244 28.9967 55.7906 28.3116C56.1569 27.6189 56.34 26.832 56.34 25.9511C56.34 24.7916 56.0448 23.7714 55.4542 22.8905C54.8712 22.0096 53.9966 21.3244 52.8305 20.835C51.7082 20.3609 50.3227 20.1164 48.6742 20.1016L48.5138 20.1009L48.5137 19C50.3269 19 51.9193 19.2569 53.2508 19.8189C54.5731 20.3738 55.6349 21.1816 56.3599 22.2744C57.0835 23.3538 57.433 24.5929 57.433 25.9511C57.433 26.9901 57.2157 27.9584 56.7553 28.8291L56.7541 28.8312L56.753 28.8335C56.3148 29.6531 55.7122 30.338 54.9568 30.8808C55.0257 30.9181 55.0943 30.9564 55.1624 30.9962C56.1217 31.5532 56.8896 32.3303 57.4596 33.3069C58.0546 34.3181 58.33 35.4832 58.33 36.7593L58.3289 36.894C58.3067 38.2814 57.9395 39.5563 57.2132 40.6886L57.2121 40.6902L57.2111 40.6918C56.4575 41.8574 55.3821 42.7516 54.0368 43.3907L54.0343 43.3919L54.0317 43.3931C52.6628 44.0349 51.0536 44.3317 49.2426 44.3317H37.8455V19ZM50.3473 36.1156C50.3473 35.6982 50.2524 35.4023 50.1086 35.1791L50.1062 35.1754L50.1039 35.1718C49.9506 34.9297 49.7282 34.7293 49.3946 34.5762L49.3887 34.5734L49.3827 34.5706C49.0531 34.4144 48.6108 34.314 48.0204 34.314H45.5815V37.6236H47.9195L47.9195 38.7245H44.4885V33.2131H48.0204C48.7305 33.2131 49.3398 33.3336 49.848 33.5745C50.3563 33.8079 50.7488 34.143 51.0254 34.5797C51.3019 35.0088 51.4402 35.5208 51.4402 36.1156L51.4394 36.192C51.422 36.9761 51.1344 37.5907 50.5769 38.0356C50.0088 38.4949 49.123 38.7245 47.9195 38.7245L47.9195 37.6236C49.0235 37.6236 49.6097 37.4059 49.8927 37.1771L49.8955 37.1748L49.8982 37.1726C50.181 36.9469 50.3473 36.642 50.3473 36.1156ZM49.5849 27.0354C49.5849 26.5855 49.4523 26.3108 49.2201 26.1027L49.1723 26.0619C48.8757 25.8205 48.408 25.6402 47.6504 25.6402H45.5815V28.5094H47.5607V29.6103H44.4885V24.5394H47.6504C48.5773 24.5394 49.3136 24.7615 49.8593 25.2057C50.4049 25.65 50.6778 26.2598 50.6778 27.0353L50.6761 27.1361C50.6604 27.635 50.5264 28.0645 50.2741 28.4245C50.0125 28.8085 49.6462 29.1021 49.1753 29.3054L49.0862 29.3424C48.6368 29.521 48.1283 29.6103 47.5607 29.6103V28.5094C48.0446 28.5094 48.4323 28.4285 48.7447 28.2936C49.0467 28.1632 49.2409 27.9954 49.3729 27.8015L49.3812 27.7896C49.5009 27.6188 49.5849 27.3861 49.5849 27.0354Z" fill="#FEFEFE"/>
<path d="M40.7013 27.329C40.7013 27.0983 40.7013 26.983 40.7725 26.9113C40.8436 26.8397 40.9581 26.8397 41.1871 26.8397H42.4015C42.6304 26.8397 42.7449 26.8397 42.8161 26.9113C42.8872 26.983 42.8872 27.0983 42.8872 27.329V27.9406C42.8872 28.1712 42.8872 28.2866 42.8161 28.3582C42.7449 28.4299 42.6304 28.4299 42.4015 28.4299H41.1871C40.9581 28.4299 40.8436 28.4299 40.7725 28.3582C40.7013 28.2866 40.7013 28.1712 40.7013 27.9406V27.329Z" fill="#FEFEFE"/>
<path d="M40.7013 30.0201C40.7013 29.7894 40.7013 29.6741 40.7725 29.6024C40.8436 29.5308 40.9581 29.5308 41.1871 29.5308H42.4015C42.6304 29.5308 42.7449 29.5308 42.8161 29.6024C42.8872 29.6741 42.8872 29.7894 42.8872 30.0201V30.6317C42.8872 30.8623 42.8872 30.9776 42.8161 31.0493C42.7449 31.121 42.6304 31.121 42.4015 31.121H41.1871C40.9581 31.121 40.8436 31.121 40.7725 31.0493C40.7013 30.9776 40.7013 30.8623 40.7013 30.6317V30.0201Z" fill="#FEFEFE"/>
<path d="M40.7013 32.7111C40.7013 32.4805 40.7013 32.3652 40.7725 32.2935C40.8436 32.2218 40.9581 32.2218 41.1871 32.2218H42.4015C42.6304 32.2218 42.7449 32.2218 42.8161 32.2935C42.8872 32.3652 42.8872 32.4805 42.8872 32.7111V33.3227C42.8872 33.5534 42.8872 33.6687 42.8161 33.7404C42.7449 33.812 42.6304 33.812 42.4015 33.812H41.1871C40.9581 33.812 40.8436 33.812 40.7725 33.7404C40.7013 33.6687 40.7013 33.5534 40.7013 33.3227V32.7111Z" fill="#FEFEFE"/>
<path d="M40.7013 35.4022C40.7013 35.1716 40.7013 35.0562 40.7725 34.9846C40.8436 34.9129 40.9581 34.9129 41.1871 34.9129H42.4015C42.6304 34.9129 42.7449 34.9129 42.8161 34.9846C42.8872 35.0562 42.8872 35.1716 42.8872 35.4022V36.0138C42.8872 36.2445 42.8872 36.3598 42.8161 36.4315C42.7449 36.5031 42.6304 36.5031 42.4015 36.5031H41.1871C40.9581 36.5031 40.8436 36.5031 40.7725 36.4315C40.7013 36.3598 40.7013 36.2445 40.7013 36.0138V35.4022Z" fill="#FEFEFE"/>
<path d="M40.7013 38.0933C40.7013 37.8626 40.7013 37.7473 40.7725 37.6757C40.8436 37.604 40.9581 37.604 41.1871 37.604H42.4015C42.6304 37.604 42.7449 37.604 42.8161 37.6757C42.8872 37.7473 42.8872 37.8626 42.8872 38.0933V38.7049C42.8872 38.9355 42.8872 39.0509 42.8161 39.1225C42.7449 39.1942 42.6304 39.1942 42.4015 39.1942H41.1871C40.9581 39.1942 40.8436 39.1942 40.7725 39.1225C40.7013 39.0509 40.7013 38.9355 40.7013 38.7049V38.0933Z" fill="#FEFEFE"/>
<path d="M40.7013 40.7844C40.7013 40.5537 40.7013 40.4384 40.7725 40.3667C40.8436 40.2951 40.9581 40.2951 41.1871 40.2951H42.4015C42.6304 40.2951 42.7449 40.2951 42.8161 40.3667C42.8872 40.4384 42.8872 40.5537 42.8872 40.7844V41.396C42.8872 41.6266 42.8872 41.7419 42.8161 41.8136C42.7449 41.8853 42.6304 41.8853 42.4015 41.8853H41.1871C40.9581 41.8853 40.8436 41.8853 40.7725 41.8136C40.7013 41.7419 40.7013 41.6266 40.7013 41.396V40.7844Z" fill="#FEFEFE"/>
<path d="M22.9283 24.641V20.1009H42.337V24.641H35.3741V43.2308H29.9024V24.641H22.9283Z" fill="#422D17"/>
<path d="M22.9283 20.1009V24.641H29.9024V43.2308H35.3741V24.641H42.337V20.1009H22.9283ZM43.4299 25.7419H36.467V44.3317H28.8094V25.7419H21.8354V19H43.4299V25.7419Z" fill="#FEFEFE"/>
<path d="M31.5934 21.9468C31.5934 21.7162 31.5934 21.6009 31.6645 21.5292C31.7357 21.4575 31.8502 21.4575 32.0792 21.4575H33.2935C33.5225 21.4575 33.637 21.4575 33.7082 21.5292C33.7793 21.6009 33.7793 21.7162 33.7793 21.9468V22.5584C33.7793 22.7891 33.7793 22.9044 33.7082 22.9761C33.637 23.0477 33.5225 23.0477 33.2935 23.0477H32.0792C31.8502 23.0477 31.7357 23.0477 31.6645 22.9761C31.5934 22.9044 31.5934 22.7891 31.5934 22.5584V21.9468Z" fill="#FEFEFE"/>
<path d="M31.5934 24.6379C31.5934 24.4073 31.5934 24.2919 31.6645 24.2203C31.7357 24.1486 31.8502 24.1486 32.0792 24.1486H33.2935C33.5225 24.1486 33.637 24.1486 33.7082 24.2203C33.7793 24.2919 33.7793 24.4073 33.7793 24.6379V25.2495C33.7793 25.4802 33.7793 25.5955 33.7082 25.6671C33.637 25.7388 33.5225 25.7388 33.2935 25.7388H32.0792C31.8502 25.7388 31.7357 25.7388 31.6645 25.6671C31.5934 25.5955 31.5934 25.4802 31.5934 25.2495V24.6379Z" fill="#FEFEFE"/>
<path d="M31.5934 27.329C31.5934 27.0983 31.5934 26.983 31.6645 26.9113C31.7357 26.8397 31.8502 26.8397 32.0792 26.8397H33.2935C33.5225 26.8397 33.637 26.8397 33.7082 26.9113C33.7793 26.983 33.7793 27.0983 33.7793 27.329V27.9406C33.7793 28.1712 33.7793 28.2866 33.7082 28.3582C33.637 28.4299 33.5225 28.4299 33.2935 28.4299H32.0792C31.8502 28.4299 31.7357 28.4299 31.6645 28.3582C31.5934 28.2866 31.5934 28.1712 31.5934 27.9406V27.329Z" fill="#FEFEFE"/>
<path d="M31.5934 30.0201C31.5934 29.7894 31.5934 29.6741 31.6645 29.6024C31.7357 29.5308 31.8502 29.5308 32.0792 29.5308H33.2935C33.5225 29.5308 33.637 29.5308 33.7082 29.6024C33.7793 29.6741 33.7793 29.7894 33.7793 30.0201V30.6317C33.7793 30.8623 33.7793 30.9776 33.7082 31.0493C33.637 31.121 33.5225 31.121 33.2935 31.121H32.0792C31.8502 31.121 31.7357 31.121 31.6645 31.0493C31.5934 30.9776 31.5934 30.8623 31.5934 30.6317V30.0201Z" fill="#FEFEFE"/>
<path d="M31.5934 32.7111C31.5934 32.4805 31.5934 32.3652 31.6645 32.2935C31.7357 32.2218 31.8502 32.2218 32.0792 32.2218H33.2935C33.5225 32.2218 33.637 32.2218 33.7082 32.2935C33.7793 32.3652 33.7793 32.4805 33.7793 32.7111V33.3227C33.7793 33.5534 33.7793 33.6687 33.7082 33.7404C33.637 33.812 33.5225 33.812 33.2935 33.812H32.0792C31.8502 33.812 31.7357 33.812 31.6645 33.7404C31.5934 33.6687 31.5934 33.5534 31.5934 33.3227V32.7111Z" fill="#FEFEFE"/>
<path d="M31.5934 35.4022C31.5934 35.1716 31.5934 35.0562 31.6645 34.9846C31.7357 34.9129 31.8502 34.9129 32.0792 34.9129H33.2935C33.5225 34.9129 33.637 34.9129 33.7082 34.9846C33.7793 35.0562 33.7793 35.1716 33.7793 35.4022V36.0138C33.7793 36.2445 33.7793 36.3598 33.7082 36.4315C33.637 36.5031 33.5225 36.5031 33.2935 36.5031H32.0792C31.8502 36.5031 31.7357 36.5031 31.6645 36.4315C31.5934 36.3598 31.5934 36.2445 31.5934 36.0138V35.4022Z" fill="#FEFEFE"/>
<path d="M31.5934 38.0933C31.5934 37.8626 31.5934 37.7473 31.6645 37.6757C31.7357 37.604 31.8502 37.604 32.0792 37.604H33.2935C33.5225 37.604 33.637 37.604 33.7082 37.6757C33.7793 37.7473 33.7793 37.8626 33.7793 38.0933V38.7049C33.7793 38.9355 33.7793 39.0509 33.7082 39.1225C33.637 39.1942 33.5225 39.1942 33.2935 39.1942H32.0792C31.8502 39.1942 31.7357 39.1942 31.6645 39.1225C31.5934 39.0509 31.5934 38.9355 31.5934 38.7049V38.0933Z" fill="#FEFEFE"/>
<path d="M31.5934 40.7844C31.5934 40.5537 31.5934 40.4384 31.6645 40.3667C31.7357 40.2951 31.8502 40.2951 32.0792 40.2951H33.2935C33.5225 40.2951 33.637 40.2951 33.7082 40.3667C33.7793 40.4384 33.7793 40.5537 33.7793 40.7844V41.396C33.7793 41.6266 33.7793 41.7419 33.7082 41.8136C33.637 41.8853 33.5225 41.8853 33.2935 41.8853H32.0792C31.8502 41.8853 31.7357 41.8853 31.6645 41.8136C31.5934 41.7419 31.5934 41.6266 31.5934 41.396V40.7844Z" fill="#FEFEFE"/>
<path d="M8.0929 43.2308V20.1009H17.6683C19.3875 20.1009 20.8264 20.3456 21.9851 20.835C23.1511 21.3244 24.0257 22.0096 24.6088 22.8905C25.1993 23.7714 25.4945 24.7916 25.4945 25.9511C25.4945 26.832 25.3114 27.6189 24.9451 28.3116C24.5789 28.9967 24.0743 29.5652 23.4315 30.0169C22.7886 30.4687 22.0449 30.7849 21.2002 30.9656V31.1915C22.1271 31.2367 22.983 31.4889 23.7678 31.9482C24.5602 32.4075 25.1955 33.0475 25.6739 33.8681C26.1523 34.6813 26.3915 35.6451 26.3915 36.7594C26.3915 38.0017 26.0776 39.1123 25.4497 40.0911C24.8218 41.0624 23.9136 41.8304 22.7251 42.395C21.5366 42.9522 20.0939 43.2308 18.3971 43.2308H8.0929ZM13.643 38.7245H17.074C18.2775 38.7245 19.1633 38.4949 19.7314 38.0356C20.3069 37.5763 20.5947 36.9363 20.5947 36.1156C20.5947 35.5208 20.4564 35.0088 20.1799 34.5797C19.9033 34.143 19.5109 33.8079 19.0026 33.5745C18.4943 33.3336 17.8851 33.2131 17.1749 33.2131H13.643V38.7245ZM13.643 29.6103H16.7152C17.3207 29.6103 17.8589 29.5087 18.3298 29.3054C18.8007 29.1021 19.167 28.8085 19.4286 28.4245C19.6977 28.0405 19.8323 27.5774 19.8323 27.0353C19.8323 26.2598 19.5594 25.65 19.0138 25.2057C18.4681 24.7615 17.7318 24.5394 16.8049 24.5394H13.643V29.6103Z" fill="#422D17"/>
<path d="M7 19H17.6682L17.6683 20.1009H8.0929V43.2308H18.3971L18.5554 43.23C20.1838 43.2131 21.5737 42.9348 22.7251 42.395C23.9136 41.8304 24.8218 41.0624 25.4497 40.0911C26.058 39.1429 26.3716 38.071 26.3906 36.8754L26.3915 36.7594C26.3915 35.6451 26.1523 34.6813 25.6739 33.8681C25.1955 33.0475 24.5602 32.4075 23.7678 31.9482C22.983 31.4889 22.1271 31.2367 21.2002 31.1915V30.9656C22.0185 30.7906 22.742 30.4883 23.3709 30.0589L23.4315 30.0169C24.0743 29.5652 24.5789 28.9967 24.9451 28.3116C25.3114 27.6189 25.4945 26.832 25.4945 25.9511C25.4945 24.7916 25.1993 23.7714 24.6088 22.8905C24.0257 22.0096 23.1511 21.3244 21.9851 20.835C20.8627 20.3609 19.4772 20.1164 17.8287 20.1016L17.6683 20.1009L17.6682 19C19.4814 19 21.0738 19.2569 22.4053 19.8189C23.7276 20.3738 24.7894 21.1816 25.5145 22.2744C26.238 23.3538 26.5875 24.5929 26.5875 25.9511C26.5875 26.9901 26.3702 27.9584 25.9098 28.8291L25.9087 28.8312L25.9075 28.8335C25.4693 29.6531 24.8668 30.338 24.1113 30.8808C24.1802 30.9181 24.2489 30.9564 24.3169 30.9962C25.2762 31.5532 26.0441 32.3303 26.6142 33.3069C27.2091 34.3181 27.4845 35.4832 27.4845 36.7593L27.4834 36.894C27.4612 38.2814 27.0941 39.5563 26.3677 40.6886L26.3667 40.6902L26.3656 40.6918C25.6121 41.8574 24.5366 42.7516 23.1913 43.3907L23.1889 43.3919L23.1862 43.3931C21.8173 44.0349 20.2082 44.3317 18.3971 44.3317H7V19ZM19.5018 36.1156C19.5018 35.6982 19.4069 35.4023 19.2631 35.1791L19.2607 35.1754L19.2585 35.1718C19.1052 34.9297 18.8827 34.7293 18.5491 34.5762L18.5432 34.5734L18.5372 34.5706C18.2076 34.4144 17.7653 34.314 17.1749 34.314H14.736V37.6236H17.074L17.074 38.7245H13.643V33.2131H17.1749C17.8851 33.2131 18.4943 33.3336 19.0026 33.5745C19.5109 33.8079 19.9033 34.143 20.1799 34.5797C20.4564 35.0088 20.5947 35.5208 20.5947 36.1156L20.5939 36.192C20.5765 36.9761 20.2889 37.5907 19.7314 38.0356C19.1633 38.4949 18.2775 38.7245 17.074 38.7245L17.074 37.6236C18.1781 37.6236 18.7642 37.4059 19.0472 37.1771L19.05 37.1748L19.0527 37.1726C19.3355 36.9469 19.5018 36.642 19.5018 36.1156ZM18.7394 27.0354C18.7394 26.5855 18.6068 26.3108 18.3746 26.1027L18.3268 26.0619C18.0303 25.8205 17.5625 25.6402 16.8049 25.6402H14.736V28.5094H16.7152V29.6103H13.643V24.5394H16.8049C17.7318 24.5394 18.4681 24.7615 19.0138 25.2057C19.5594 25.65 19.8323 26.2598 19.8323 27.0353L19.8307 27.1361C19.8149 27.635 19.6809 28.0645 19.4286 28.4245C19.167 28.8085 18.8007 29.1021 18.3298 29.3054L18.2407 29.3424C17.7913 29.521 17.2828 29.6103 16.7152 29.6103V28.5094C17.1992 28.5094 17.5868 28.4285 17.8993 28.2936C18.2012 28.1632 18.3954 27.9954 18.5274 27.8015L18.5357 27.7896C18.6555 27.6188 18.7394 27.3861 18.7394 27.0354Z" fill="#FEFEFE"/>
<path d="M9.73439 21.9468C9.73439 21.7162 9.73439 21.6009 9.80553 21.5292C9.87667 21.4575 9.99116 21.4575 10.2201 21.4575H11.4345C11.6635 21.4575 11.778 21.4575 11.8492 21.5292C11.9203 21.6009 11.9203 21.7162 11.9203 21.9468V22.5584C11.9203 22.7891 11.9203 22.9044 11.8492 22.9761C11.778 23.0477 11.6635 23.0477 11.4345 23.0477H10.2201C9.99116 23.0477 9.87667 23.0477 9.80553 22.9761C9.73439 22.9044 9.73439 22.7891 9.73439 22.5584V21.9468Z" fill="#FEFEFE"/>
<path d="M9.73439 24.6379C9.73439 24.4073 9.73439 24.2919 9.80553 24.2203C9.87667 24.1486 9.99116 24.1486 10.2201 24.1486H11.4345C11.6635 24.1486 11.778 24.1486 11.8492 24.2203C11.9203 24.2919 11.9203 24.4073 11.9203 24.6379V25.2495C11.9203 25.4802 11.9203 25.5955 11.8492 25.6671C11.778 25.7388 11.6635 25.7388 11.4345 25.7388H10.2201C9.99116 25.7388 9.87667 25.7388 9.80553 25.6671C9.73439 25.5955 9.73439 25.4802 9.73439 25.2495V24.6379Z" fill="#FEFEFE"/>
<path d="M9.73439 27.329C9.73439 27.0983 9.73439 26.983 9.80553 26.9113C9.87667 26.8397 9.99116 26.8397 10.2201 26.8397H11.4345C11.6635 26.8397 11.778 26.8397 11.8492 26.9113C11.9203 26.983 11.9203 27.0983 11.9203 27.329V27.9406C11.9203 28.1712 11.9203 28.2866 11.8492 28.3582C11.778 28.4299 11.6635 28.4299 11.4345 28.4299H10.2201C9.99116 28.4299 9.87667 28.4299 9.80553 28.3582C9.73439 28.2866 9.73439 28.1712 9.73439 27.9406V27.329Z" fill="#FEFEFE"/>
<path d="M9.73439 30.0201C9.73439 29.7894 9.73439 29.6741 9.80553 29.6024C9.87667 29.5308 9.99116 29.5308 10.2201 29.5308H11.4345C11.6635 29.5308 11.778 29.5308 11.8492 29.6024C11.9203 29.6741 11.9203 29.7894 11.9203 30.0201V30.6317C11.9203 30.8623 11.9203 30.9776 11.8492 31.0493C11.778 31.121 11.6635 31.121 11.4345 31.121H10.2201C9.99116 31.121 9.87667 31.121 9.80553 31.0493C9.73439 30.9776 9.73439 30.8623 9.73439 30.6317V30.0201Z" fill="#FEFEFE"/>
<path d="M9.73439 32.7111C9.73439 32.4805 9.73439 32.3652 9.80553 32.2935C9.87667 32.2218 9.99116 32.2218 10.2201 32.2218H11.4345C11.6635 32.2218 11.778 32.2218 11.8492 32.2935C11.9203 32.3652 11.9203 32.4805 11.9203 32.7111V33.3227C11.9203 33.5534 11.9203 33.6687 11.8492 33.7404C11.778 33.812 11.6635 33.812 11.4345 33.812H10.2201C9.99116 33.812 9.87667 33.812 9.80553 33.7404C9.73439 33.6687 9.73439 33.5534 9.73439 33.3227V32.7111Z" fill="#FEFEFE"/>
<path d="M9.73439 35.4022C9.73439 35.1716 9.73439 35.0562 9.80553 34.9846C9.87667 34.9129 9.99116 34.9129 10.2201 34.9129H11.4345C11.6635 34.9129 11.778 34.9129 11.8492 34.9846C11.9203 35.0562 11.9203 35.1716 11.9203 35.4022V36.0138C11.9203 36.2445 11.9203 36.3598 11.8492 36.4315C11.778 36.5031 11.6635 36.5031 11.4345 36.5031H10.2201C9.99116 36.5031 9.87667 36.5031 9.80553 36.4315C9.73439 36.3598 9.73439 36.2445 9.73439 36.0138V35.4022Z" fill="#FEFEFE"/>
<path d="M9.73439 38.0933C9.73439 37.8626 9.73439 37.7473 9.80553 37.6757C9.87667 37.604 9.99116 37.604 10.2201 37.604H11.4345C11.6635 37.604 11.778 37.604 11.8492 37.6757C11.9203 37.7473 11.9203 37.8626 11.9203 38.0933V38.7049C11.9203 38.9355 11.9203 39.0509 11.8492 39.1225C11.778 39.1942 11.6635 39.1942 11.4345 39.1942H10.2201C9.99116 39.1942 9.87667 39.1942 9.80553 39.1225C9.73439 39.0509 9.73439 38.9355 9.73439 38.7049V38.0933Z" fill="#FEFEFE"/>
<path d="M9.73439 40.7844C9.73439 40.5537 9.73439 40.4384 9.80553 40.3667C9.87667 40.2951 9.99116 40.2951 10.2201 40.2951H11.4345C11.6635 40.2951 11.778 40.2951 11.8492 40.3667C11.9203 40.4384 11.9203 40.5537 11.9203 40.7844V41.396C11.9203 41.6266 11.9203 41.7419 11.8492 41.8136C11.778 41.8853 11.6635 41.8853 11.4345 41.8853H10.2201C9.99116 41.8853 9.87667 41.8853 9.80553 41.8136C9.73439 41.7419 9.73439 41.6266 9.73439 41.396V40.7844Z" fill="#FEFEFE"/>
</svg>
